<?xml version="1.0"?>
<svg xmlns="http://www.w3.org/2000/svg" xmlns:xlink="http://www.w3.org/1999/xlink" xmlns:svgjs="http://svgjs.com/svgjs" version="1.1" width="512" height="512" x="0" y="0" viewBox="0 0 512 512" style="enable-background:new 0 0 512 512" xml:space="preserve" class=""><g><g xmlns="http://www.w3.org/2000/svg"><path d="m233.5 156.391v215.615c0 12.407 10.094 22.5 22.5 22.5s22.5-10.093 22.5-22.5v-215.615c0-12.407-10.094-22.5-22.5-22.5s-22.5 10.093-22.5 22.5zm30 0v215.615c0 4.136-3.364 7.5-7.5 7.5s-7.5-3.364-7.5-7.5v-215.615c0-4.136 3.364-7.5 7.5-7.5s7.5 3.364 7.5 7.5z" fill="#424b54" data-original="#000000" style="" class=""/><path d="m138.229 156.391v215.615c0 12.407 10.094 22.5 22.5 22.5s22.5-10.093 22.5-22.5v-215.615c0-12.407-10.094-22.5-22.5-22.5s-22.5 10.093-22.5 22.5zm30 0v215.615c0 4.136-3.364 7.5-7.5 7.5s-7.5-3.364-7.5-7.5v-215.615c0-4.136 3.364-7.5 7.5-7.5s7.5 3.364 7.5 7.5z" fill="#424b54" data-original="#000000" style="" class=""/><path d="m328.771 156.391v215.615c0 12.407 10.094 22.5 22.5 22.5s22.5-10.093 22.5-22.5v-215.615c0-12.407-10.094-22.5-22.5-22.5s-22.5 10.093-22.5 22.5zm30 0v215.615c0 4.136-3.364 7.5-7.5 7.5s-7.5-3.364-7.5-7.5v-215.615c0-4.136 3.364-7.5 7.5-7.5s7.5 3.364 7.5 7.5z" fill="#424b54" data-original="#000000" style="" class=""/><path d="m432.409 41.841h-140.638v-23.033c0-10.37-8.438-18.808-18.808-18.808h-33.926c-10.37 0-18.808 8.438-18.808 18.808v23.033h-140.638c-13.489 0-24.463 10.974-24.463 24.462v9.046c0 12.216 9 22.368 20.718 24.176.886 16.913 19.582 373.945 20.497 391.434.617 11.799 10.355 21.041 22.171 21.041h33.626c4.143 0 7.5-3.358 7.5-7.5s-3.357-7.5-7.5-7.5h-33.626c-3.832 0-6.991-2.997-7.191-6.824l-1.314-25.105h291.984l-1.315 25.106c-.199 3.827-3.358 6.824-7.19 6.824h-206.348c-4.143 0-7.5 3.358-7.5 7.5s3.357 7.5 7.5 7.5h206.347c11.815 0 21.554-9.242 22.17-21.04 2.843-54.28 15.176-289.798 15.4-294.091.217-4.136-2.961-7.665-7.097-7.882-4.148-.209-7.666 2.961-7.883 7.098l-13.299 253.984h-293.556l-18.341-350.257h330.238l-3.211 61.321c-.216 4.136 2.962 7.665 7.098 7.882 4.147.215 7.666-2.962 7.883-7.098l3.266-62.392c11.718-1.808 20.717-11.961 20.717-24.176v-9.046c0-13.49-10.974-24.463-24.463-24.463zm-197.18-23.033c0-2.1 1.708-3.808 3.808-3.808h33.926c2.1 0 3.808 1.708 3.808 3.808v23.033h-41.541v-23.033zm206.643 56.542c0 5.218-4.245 9.463-9.463 9.463-2.335 0-346.087 0-352.818 0-5.218 0-9.463-4.245-9.463-9.463v-9.046c0-5.218 4.245-9.462 9.463-9.462h352.818c5.218 0 9.463 4.245 9.463 9.462z" fill="#424b54" data-original="#000000" style="" class=""/></g></g></svg>
